<mxfile host="app.diagrams.net" modified="2024-01-03T13:49:16.438Z" agent="Mozilla/5.0 (Windows NT 10.0; Win64; x64) AppleWebKit/537.36 (KHTML, like Gecko) Chrome/120.0.0.0 Safari/537.36" version="22.1.16" etag="_4pVpPRJ84HYNDBZZs9q" type="github">
  <diagram name="Trang-1" id="Rqc2lwG35LBlMPwVqdwt">
    <mxGraphModel>
      <root>
        <mxCell id="0" />
        <mxCell id="1" parent="0" />
      </root>
    </mxGraphModel>
  </diagram>
</mxfile>
